<?xml version="1.0" encoding="UTF-8"?>
<svg id="Lag_1" data-name="Lag 1" xmlns="http://www.w3.org/2000/svg" viewBox="0 0 107.13 65.81">
  <defs>
    <style>
      .cls-1 {
        letter-spacing: 0em;
      }

      .cls-2, .cls-3, .cls-4 {
        fill: #5c534e;
      }

      .cls-5 {
        letter-spacing: -.01em;
      }

      .cls-3 {
        font-size: 36px;
      }

      .cls-3, .cls-4 {
        font-family: Didot, Didot;
      }

      .cls-4 {
        font-size: 12px;
      }
    </style>
  </defs>
  <text class="cls-3" transform="translate(7.08 43.28)"><tspan x="0" y="0">HA R</tspan></text>
  <text class="cls-4" transform="translate(7.01 55.39)"><tspan class="cls-5" x="0" y="0">b</tspan><tspan class="cls-1" x="6.94" y="0">y MADELAINE</tspan></text>
  <path class="cls-2" d="M73.89,10.28s1.15,3.83-3.36,4.74c0,0-.67.19-.72,1.12,0,0-1.02,4.2-1.02,4.81,0,0-.29,2.54-.42,6.09,0,0-.62,8.19-.71,9.38,0,0-.65,5.21-1.14,6.86,0,0-.97-4.3-1.26-14.66,0,0-.11-6.22-.26-6.33,0,0-.77-6.76-1.07-7.11,0,0,.03-.76-.96-.87,0,0-2.64-.54-2.6-2.69,0,0-.19-1.17,1.98-3.03,0,0,.29-.61.12-1.19,0,0-.26-.67-1.45-1.28,0,0-.17-.5.13-.72,0,0,1.54.05,2.57,2.36,0,0,.06.7.8.92,0,0,1.55.44,2.18,1.45,0,0,.31.56.38,1.23,0,0,0,.08,0,.2,0,.49-.21,1.78-1.84,2.55,0,0-.44.25-.32.85,0,0,1.15,5.73,1.35,5.87,0,0,.32,1.04.56,1.04s1.52-3.74,2.18-6.67c0,0,.09-.58-.56-.82,0,0-1.35-.84-1.28-2.22,0,0-.04-.23,0-.6.06-.57.3-1.44,1.11-2.32,0,0,1.28-1.06,2.85-.9,0,0,1.93.22,2.75,1.94ZM73.13,12.22c1.03-2.53-1.85-3.07-1.85-3.07-2.45-.28-3.07,1.44-3.07,1.44-1.13,2.7,1.66,3.51,1.66,3.51,2.85.13,3.26-1.88,3.26-1.88ZM64.37,13.63c2.76-.98,1.72-3,1.72-3,0,0-.59-1.44-2.61-1.23-2.02.22-2.33,1.99-2.33,1.99.19,2.85,3.22,2.24,3.22,2.24Z"/>
</svg>