<?xml version="1.0" encoding="UTF-8"?>
<svg version="1.1" xmlns="http://www.w3.org/2000/svg" width="512" height="512">
<path d="M0 0 C3.26094942 1.922502 4.70915666 3.53148191 6.82788086 6.63549805 C7.50705566 7.61695801 8.18623047 8.59841797 8.88598633 9.60961914 C9.58997559 10.65585449 10.29396484 11.70208984 11.01928711 12.7800293 C12.09654053 14.34744873 12.09654053 14.34744873 13.19555664 15.9465332 C15.10307515 18.72963398 16.99801346 21.5203221 18.88464355 24.31756592 C20.54132492 26.77387013 22.20226178 29.22728736 23.86282349 31.68096924 C24.70734568 32.9289874 25.55164607 34.17715567 26.39572144 35.42547607 C30.17307702 41.01144105 33.96799959 46.58532334 37.76928711 52.1550293 C38.37200439 53.03843994 38.97472168 53.92185059 39.59570312 54.83203125 C40.79994782 56.59699275 42.00429264 58.36188594 43.20874023 60.12670898 C46.31363736 64.67687376 49.4163417 69.22853345 52.51928711 73.7800293 C56.24532099 79.24523376 59.97157665 84.71028629 63.69897461 90.17456055 C66.81248396 94.73911774 69.92487253 99.30443722 73.03637695 103.87036133 C74.40367303 105.87669409 75.7712 107.88286951 77.13891602 109.88891602 C79.32916545 113.1019683 81.51822376 116.31582834 83.70678711 119.5300293 C84.41762451 120.57328369 85.12846191 121.61653809 85.86083984 122.69140625 C89.16657597 127.55120909 92.45457032 132.42072636 95.69116211 137.3269043 C96.24715088 138.16898438 96.80313965 139.01106445 97.37597656 139.87866211 C98.40226915 141.43767584 99.42448887 142.9993812 100.44189453 144.56420898 C102.67270661 148.24949024 102.67270661 148.24949024 106.01928711 150.7800293 C106.25349365 150.10085449 106.4877002 149.42167969 106.72900391 148.72192383 C108.31826192 145.09835542 110.43288351 141.95735569 112.66381836 138.7097168 C113.13673309 138.01292816 113.60964783 137.31613953 114.09689331 136.59823608 C115.12763246 135.08078731 116.16055926 133.56482275 117.19540405 132.0501709 C118.86269563 129.60978911 120.52435345 127.16565847 122.18457031 124.72045898 C124.56167519 121.21993687 126.94076192 117.72077384 129.32104492 114.22241211 C135.47350874 105.17443204 141.58930825 96.10168095 147.70678711 87.0300293 C148.31551666 86.12782654 148.92424622 85.22562378 149.55142212 84.29608154 C158.20688991 71.46711625 166.8173894 58.60914257 175.38735962 45.72293091 C181.17774119 37.01725078 186.99621144 28.33389674 192.93920898 19.73120117 C195.14119952 16.54262378 197.31616404 13.34678464 199.40209961 10.08081055 C200.45010742 8.44692383 200.45010742 8.44692383 201.51928711 6.7800293 C202.08647461 5.8725293 202.65366211 4.9650293 203.23803711 4.0300293 C205.89821602 0.6698033 208.45528884 -0.92239581 212.66772461 -1.72387695 C217.73000888 -1.8326653 221.1459679 -1.72838872 225.14428711 1.5925293 C228.38261877 4.7301473 228.97530416 7.09377419 229.26757812 11.65405273 C229.18584813 17.90895362 227.58529415 23.76390352 226.04663086 29.7956543 C225.7323262 31.05982178 225.41802155 32.32398926 225.0941925 33.62646484 C224.24072718 37.05274924 223.37260228 40.47514729 222.50007629 43.8966217 C221.9540428 46.04080576 221.41152797 48.18585194 220.86999512 50.33117676 C210.87469952 89.89788673 200.31430265 129.35747684 186.70031738 167.85406494 C186.02391292 169.76694744 185.35197074 171.68135624 184.68041992 173.59594727 C171.59058825 210.69356493 171.59058825 210.69356493 160.25756836 225.3347168 C158.70017078 227.70743123 158.70017078 227.70743123 159.74169922 230.11816406 C161.05614928 232.85683193 162.53196666 235.29168743 164.22241211 237.81518555 C165.18824219 239.26199707 165.18824219 239.26199707 166.17358398 240.73803711 C167.21095703 242.27476074 167.21095703 242.27476074 168.26928711 243.8425293 C168.98149414 244.90439453 169.69370117 245.96625977 170.42749023 247.06030273 C175.62174922 254.7779484 180.91892536 262.4195964 186.27661133 270.02441406 C189.36677376 274.41115753 192.4204631 278.81350763 195.39428711 283.2800293 C196.00788086 284.18237305 196.62147461 285.0847168 197.25366211 286.0144043 C199.01928711 288.7800293 199.01928711 288.7800293 200.78491211 292.1706543 C202.63908338 295.5206276 204.23002443 298.15106907 207.01928711 300.7800293 C210.65643621 301.56230858 213.66636281 301.40856696 217.36694336 301.0847168 C234.48656238 299.65655607 251.85918744 307.91231535 264.67944336 318.66674805 C279.44039408 331.99842474 288.05348881 350.16025021 289.20678711 370.0065918 C289.61683747 391.48297925 282.40546067 409.84572262 267.83178711 425.5300293 C258.33463906 434.49955801 247.52410439 440.17257898 235.01928711 443.7800293 C233.77985352 444.14741211 233.77985352 444.14741211 232.51538086 444.5222168 C214.8301697 448.89115221 195.90095799 445.02951912 180.01928711 436.7800293 C162.29044733 425.94703258 150.78973482 410.03856002 145.27319336 390.08081055 C141.89801057 374.50841548 143.48944262 357.21763783 150.34741211 342.83081055 C151.54083921 339.18808249 149.84954618 336.19118212 148.19677734 332.90795898 C147.82225937 332.1590741 147.44774139 331.41018921 147.06187439 330.63861084 C146.65465652 329.83449768 146.24743866 329.03038452 145.82788086 328.2019043 C145.4043483 327.35766907 144.98081573 326.51343384 144.54444885 325.64361572 C143.18564381 322.93718359 141.82133674 320.23356888 140.45678711 317.5300293 C139.56514044 315.75677811 138.67386072 313.98334236 137.78295898 312.2097168 C136.03154835 308.72400175 134.27794739 305.23940227 132.52270508 301.75561523 C129.89701966 296.54154357 127.28620922 291.32009695 124.68418884 286.09417725 C116.57454074 269.17646534 116.57454074 269.17646534 106.01928711 253.7800293 C105.02928711 253.7800293 104.03928711 253.7800293 103.01928711 253.7800293 C101.37424242 255.70454104 100.0206903 257.5447468 98.64428711 259.6550293 C98.21220947 260.3135791 97.78013184 260.97212891 97.33496094 261.65063477 C87.00039857 277.92378243 79.32922869 295.9356584 71.59619141 313.55786133 C71.09901611 314.68820801 70.60184082 315.81855469 70.08959961 316.9831543 C69.60136719 318.0949707 69.11313477 319.20678711 68.61010742 320.35229492 C67.47789737 322.79186354 66.31680948 325.14104851 65.0456543 327.50463867 C64.71749725 328.12312683 64.38934021 328.74161499 64.05123901 329.37884521 C63.12862523 331.09995511 62.18375509 332.80908073 61.23754883 334.51733398 C59.17201746 340.04914987 60.79100475 344.69609675 62.95678711 349.9675293 C69.67093869 367.86379516 68.26671794 387.60418585 60.45678711 404.9440918 C50.2877562 425.00582125 34.81432411 437.51501696 13.69897461 444.5534668 C-5.44076019 449.57491813 -26.22869343 446.30172057 -43.25415039 436.5378418 C-60.91367458 425.15276173 -72.2666459 409.23428606 -76.98071289 388.7800293 C-80.43139219 368.60860867 -76.60580247 348.72819234 -65.17211914 331.6394043 C-53.14477533 315.94597174 -37.60634891 306.17059275 -18.14599609 302.10473633 C-15.45248333 301.82842534 -13.46060696 301.90418295 -10.8125 302.22021484 C-4.7468166 302.7573475 1.20273598 303.08930864 6.13446045 299.04580688 C11.30154076 293.24599819 15.07793786 286.47281998 18.95678711 279.7800293 C20.15955487 277.80487609 21.36850552 275.83347412 22.58374023 273.8659668 C24.37396158 270.96130985 26.15723795 268.05399394 27.91398621 265.12895203 C33.18513285 256.3569461 38.98829249 248.04070638 45.01928711 239.7800293 C46.29109969 238.00989913 47.56222399 236.2392735 48.83178711 234.4675293 C49.29198242 233.83202148 49.75217773 233.19651367 50.22631836 232.54174805 C51.17311048 230.81408453 51.17311048 230.81408453 50.87475586 228.8972168 C49.74074913 226.0906796 48.18220029 223.7481928 46.51928711 221.2175293 C14.56519584 170.54220194 1.89469499 103.66170352 -12.90551758 46.44958496 C-13.53323002 44.02542468 -14.16435203 41.60214443 -14.79907227 39.17980957 C-15.68215155 35.79965414 -16.54865182 32.41567714 -17.41040039 29.0300293 C-17.67215057 28.03739075 -17.93390076 27.0447522 -18.20358276 26.02203369 C-20.02482859 18.75028108 -21.66074172 11.33393643 -18.35571289 4.3425293 C-13.15544686 -1.26828405 -7.20072255 -2.94717099 0 0 Z M27.01928711 86.7800293 C28.01928711 88.7800293 28.01928711 88.7800293 28.01928711 88.7800293 Z M181.01928711 86.7800293 C180.62588135 87.37275635 180.23247559 87.9654834 179.82714844 88.57617188 C167.53107288 107.08899295 155.12050426 125.52366512 142.67555237 143.93669128 C141.50285925 145.67477939 140.33259903 147.41451171 139.16490173 149.15596008 C136.28827505 153.44374189 133.37996237 157.70145806 130.3972168 161.91625977 C129.8269577 162.7350914 129.25669861 163.55392303 128.66915894 164.39756775 C127.59124819 165.9442255 126.49923143 167.48117978 125.3911438 169.00636292 C124.08147697 170.90335885 122.92131625 172.65895521 122.01928711 174.7800293 C122.37216899 177.5721453 122.37216899 177.5721453 124.01928711 179.7800293 C124.43154541 180.47596191 124.84380371 181.17189453 125.26855469 181.88891602 C125.7289917 182.57228027 126.18942871 183.25564453 126.66381836 183.9597168 C127.1762207 184.72413086 127.68862305 185.48854492 128.21655273 186.27612305 C128.74958008 187.06116211 129.28260742 187.84620117 129.83178711 188.6550293 C130.35321289 189.43233398 130.87463867 190.20963867 131.41186523 191.01049805 C134.53908613 195.65643172 137.74303136 200.23808509 141.01928711 204.7800293 C157.56094593 185.09493998 164.01174438 150.49426053 171.45678711 126.2800293 C171.70200104 125.48253265 171.94721497 124.68503601 172.19985962 123.8633728 C173.83934819 118.51183463 175.4406921 113.14981824 177.01928711 107.7800293 C177.26414856 106.9535791 177.50901001 106.12712891 177.7612915 105.27563477 C178.49396904 102.79028581 179.21365247 100.30153802 179.92944336 97.8112793 C180.15490341 97.04924194 180.38036346 96.28720459 180.61265564 95.5020752 C181.87989357 91.15488531 181.87989357 91.15488531 181.01928711 86.7800293 Z M28.01928711 88.7800293 C28.6417758 93.98001487 29.77554528 98.85992567 31.28491211 103.87768555 C31.51439545 104.65249268 31.74387878 105.4272998 31.98031616 106.22558594 C32.73640726 108.76669183 33.50168277 111.30487884 34.26928711 113.8425293 C34.66528107 115.15651199 34.66528107 115.15651199 35.0692749 116.49703979 C48.58218621 166.69692635 48.58218621 166.69692635 73.01928711 211.7800293 C73.68573242 211.6356543 74.35217773 211.4912793 75.03881836 211.3425293 C87.42739491 208.84748731 96.22234744 208.80829962 107.27612305 215.59838867 C114.54772239 220.52759607 120.51110076 226.99689203 126.01928711 233.7800293 C126.01928711 230.22174088 125.26615143 229.32348192 123.26538086 226.44799805 C122.6659668 225.57852539 122.06655273 224.70905273 121.44897461 223.81323242 C120.79155273 222.87415039 120.13413086 221.93506836 119.45678711 220.9675293 C118.06988564 218.96114517 116.683172 216.9546312 115.29663086 214.94799805 C114.58361816 213.92109863 113.87060547 212.89419922 113.13598633 211.83618164 C109.90353146 207.1690686 106.71211598 202.47429578 103.51928711 197.7800293 C102.26691569 195.94263105 101.0143108 194.10539192 99.76147461 192.26831055 C99.14240234 191.36032715 98.52333008 190.45234375 97.88549805 189.5168457 C96.03713918 186.80620953 94.1884181 184.09582074 92.33959961 181.38549805 C85.00415377 170.63098847 77.67867297 159.86976359 70.36010742 149.10375977 C64.49369166 140.47502852 58.61834696 131.85242162 52.73803711 123.2331543 C50.13130222 119.41198108 47.52758285 115.58877209 44.92553711 111.7644043 C43.91354248 110.27783325 43.91354248 110.27783325 42.88110352 108.76123047 C41.5962938 106.87380111 40.31207375 104.98597017 39.02856445 103.09765625 C34.1215622 95.86972156 34.1215622 95.86972156 29.01928711 88.7800293 C28.68928711 88.7800293 28.35928711 88.7800293 28.01928711 88.7800293 Z M127.01928711 233.7800293 C127.34928711 234.7700293 127.67928711 235.7600293 128.01928711 236.7800293 C128.01928711 235.7900293 128.01928711 234.8000293 128.01928711 233.7800293 C127.68928711 233.7800293 127.35928711 233.7800293 127.01928711 233.7800293 Z M130.01928711 237.7800293 C131.01928711 239.7800293 131.01928711 239.7800293 131.01928711 239.7800293 Z M132.01928711 240.7800293 C133.01928711 242.7800293 133.01928711 242.7800293 133.01928711 242.7800293 Z M134.01928711 243.7800293 C135.01928711 245.7800293 135.01928711 245.7800293 135.01928711 245.7800293 Z M135.01928711 245.7800293 C135.34928711 246.7700293 135.67928711 247.7600293 136.01928711 248.7800293 C136.01928711 247.7900293 136.01928711 246.8000293 136.01928711 245.7800293 C135.68928711 245.7800293 135.35928711 245.7800293 135.01928711 245.7800293 Z M137.01928711 248.7800293 C137.34928711 249.7700293 137.67928711 250.7600293 138.01928711 251.7800293 C138.01928711 250.7900293 138.01928711 249.8000293 138.01928711 248.7800293 C137.68928711 248.7800293 137.35928711 248.7800293 137.01928711 248.7800293 Z M139.01928711 251.7800293 C140.5119937 256.8346971 142.70538141 261.17798453 145.20678711 265.7800293 C149.90476987 274.55795619 154.39208178 283.43223705 158.83178711 292.3425293 C159.31160538 293.30509644 159.31160538 293.30509644 159.80111694 294.28710938 C161.32264459 297.34021935 162.8425979 300.39410485 164.36157227 303.44848633 C166.57436067 307.89557183 168.79619801 312.33808556 171.01928711 316.7800293 C173.98928711 314.8000293 176.95928711 312.8200293 180.01928711 310.7800293 C175.17562551 303.06517376 170.16145365 295.48617672 165.01928711 287.9675293 C163.90647965 286.33781988 162.79367449 284.70810888 161.68104553 283.07827759 C160.9247164 281.97051407 160.16815506 280.86290906 159.41136169 279.75546265 C156.80968541 275.94616384 154.22543614 272.12545616 151.64819336 268.29956055 C150.96305664 267.28547119 150.27791992 266.27138184 149.57202148 265.2265625 C148.26653624 263.29379737 146.96433564 261.35880869 145.66577148 259.42138672 C145.0824707 258.56005127 144.49916992 257.69871582 143.89819336 256.8112793 C143.13357788 255.67529297 143.13357788 255.67529297 142.35351562 254.51635742 C141.11864048 252.64773423 141.11864048 252.64773423 139.01928711 251.7800293 Z M65.01928711 258.7800293 C66.01928711 260.7800293 66.01928711 260.7800293 66.01928711 260.7800293 Z M64.01928711 260.7800293 C59.96225649 266.79387343 55.90547976 272.80788877 51.84887695 278.82202148 C50.46970326 280.86665701 49.0904721 282.91125378 47.71118164 284.95581055 C45.72518945 287.89971823 43.739406 290.84376663 41.75366211 293.7878418 C41.13996765 294.69744659 40.52627319 295.60705139 39.89398193 296.54421997 C38.7618441 298.22289694 37.63245107 299.90343002 36.50646973 301.58624268 C35.58378032 302.94732883 34.64382 304.29707802 33.6776123 305.62762451 C32.41241449 307.33946152 32.41241449 307.33946152 31.01928711 309.7800293 C32.3611215 313.80553248 34.44204441 314.66288566 38.01928711 316.7800293 C38.67928711 316.7800293 39.33928711 316.7800293 40.01928711 316.7800293 C40.67562134 315.28560303 40.67562134 315.28560303 41.34521484 313.76098633 C43.37677943 309.13984529 45.41564431 304.52194663 47.45678711 299.9050293 C47.82077606 299.08101624 48.18476501 298.25700317 48.55978394 297.40802002 C53.02384741 287.31667719 57.51006487 277.26665699 62.71826172 267.53051758 C63.53852216 265.97393971 64.2887464 264.38067671 65.01928711 262.7800293 C64.52428711 261.7900293 64.52428711 261.7900293 64.01928711 260.7800293 Z M-41.80883789 346.97924805 C-48.57326605 356.49386038 -52.02742209 367.59161397 -50.53930664 379.2331543 C-48.21619116 391.49920405 -43.61042402 402.1759052 -33.33227539 409.7253418 C-21.20678767 417.66504472 -9.6432114 420.66520029 4.87084961 418.3190918 C17.41490646 414.93418757 27.5945155 406.94646333 34.01928711 395.7800293 C39.55022165 384.80595282 40.9423638 373.0759924 38.14819336 361.0222168 C33.72794394 348.7614594 25.41511324 338.62838127 13.58178711 332.9675293 C-6.97928617 324.34605857 -27.56607919 329.84533106 -41.80883789 346.97924805 Z M181.70678711 344.0300293 C173.41826223 354.6009016 169.99127801 366.53547717 171.48413086 379.79956055 C173.0468304 388.5027704 176.5971178 395.840708 182.01928711 402.7800293 C182.4975293 403.39620117 182.97577148 404.01237305 183.46850586 404.6472168 C189.94103285 411.9838343 200.8353846 417.21088794 210.46459961 418.6315918 C224.51263464 419.44783848 236.21907054 415.80790263 247.01928711 406.7800293 C255.1938934 399.11533996 260.40841178 389.01819168 261.35522461 377.79956055 C261.66488582 363.53158368 258.72093401 352.70732909 249.01928711 341.7800293 C239.29038322 332.35404 228.00212979 328.4675293 214.72387695 328.4675293 C201.46375089 328.71459495 190.77561885 334.39586778 181.70678711 344.0300293 Z " fill="#000000" transform="translate(150.980712890625,32.219970703125)"/>
</svg>
